<svg width="758" height="879" viewBox="0 0 758 879" fill="none" xmlns="http://www.w3.org/2000/svg">
<path d="M95.7631 710.166V710.174L95.7631 710.181C95.7643 710.362 95.7173 710.541 95.6269 710.698C95.5364 710.855 95.4058 710.985 95.2484 711.075C95.0911 711.165 94.9127 711.211 94.7314 711.209C94.55 711.207 94.3725 711.157 94.2171 711.064L94.2026 711.056L94.188 711.047L2.62502 658.203C2.62141 658.201 2.61781 658.199 2.61423 658.197C2.46645 658.106 2.34429 657.979 2.25925 657.827C2.17211 657.673 2.12689 657.498 2.12809 657.32L2.12814 657.312V657.305V364.836C2.1309 364.658 2.18019 364.483 2.27117 364.33C2.36331 364.175 2.49491 364.047 2.6526 363.959L2.6664 363.952L2.68009 363.944L253.451 219.405L253.467 219.397L253.482 219.388C253.64 219.293 253.821 219.243 254.006 219.243C254.191 219.243 254.372 219.293 254.531 219.388L254.54 219.394L254.55 219.399L346.398 273.027L346.402 273.029C346.557 273.119 346.686 273.248 346.775 273.403C346.864 273.558 346.911 273.734 346.911 273.913C346.911 274.092 346.864 274.268 346.775 274.423C346.686 274.577 346.558 274.706 346.404 274.795C346.403 274.796 346.403 274.796 346.402 274.796L98.3595 417.97L98.345 417.978L98.3306 417.987C97.5424 418.459 96.891 419.128 96.4408 419.928C95.9919 420.726 95.7584 421.627 95.7631 422.542V710.166Z" fill="#B5E3D1" stroke="#C6E0F6" stroke-width="4.25613"/>
<path d="M128.15 732.072L128.136 732.064L128.122 732.056C127.991 731.984 127.882 731.878 127.805 731.75C127.73 731.625 127.689 731.484 127.684 731.339L127.684 439.393C127.684 439.393 127.684 439.393 127.684 439.393C127.684 439.246 127.722 439.102 127.795 438.974C127.865 438.849 127.966 438.744 128.088 438.669L220.003 385.393L220.017 385.385L220.031 385.376C220.162 385.298 220.311 385.256 220.464 385.255C220.617 385.254 220.767 385.294 220.899 385.371C221.031 385.448 221.139 385.559 221.213 385.693C221.287 385.826 221.324 385.977 221.32 386.13L221.319 386.16V386.19V673.65V673.651C221.319 674.532 221.548 675.399 221.983 676.166C222.418 676.933 223.043 677.575 223.8 678.028L223.814 678.037L223.829 678.046L473.207 822.225C473.211 822.227 473.215 822.23 473.219 822.232C473.34 822.307 473.44 822.412 473.51 822.536C473.582 822.663 473.62 822.808 473.62 822.955C473.62 823.102 473.582 823.246 473.51 823.374C473.44 823.497 473.341 823.601 473.221 823.676L380.316 876.765C380.313 876.766 380.31 876.768 380.308 876.769C380.183 876.837 380.044 876.872 379.902 876.872C379.761 876.872 379.623 876.837 379.499 876.77C379.495 876.768 379.492 876.767 379.489 876.765L128.15 732.072Z" fill="#47BB8E" stroke="#C6E0F6" stroke-width="4.25613"/>
<path d="M505.246 804.427L505.247 804.426L754.655 660.74L505.246 804.427ZM505.246 804.427C505 804.569 504.721 804.644 504.437 804.644C504.153 804.644 503.874 804.569 503.628 804.427L503.627 804.427M505.246 804.427L503.627 804.427M503.627 804.427L251.921 659.293C251.675 659.151 251.471 658.948 251.329 658.703C251.188 658.458 251.113 658.181 251.112 657.898V552.352C251.113 552.069 251.188 551.792 251.33 551.547C251.472 551.302 251.676 551.098 251.922 550.957C252.168 550.815 252.447 550.741 252.73 550.741C253.014 550.741 253.292 550.816 253.538 550.958L253.538 550.958M503.627 804.427L253.538 550.958M253.538 550.958L501.585 694.134C501.585 694.134 501.585 694.134 501.585 694.134C502.478 694.649 503.491 694.921 504.522 694.921C505.553 694.921 506.566 694.649 507.459 694.134L507.459 694.133M253.538 550.958L507.459 694.133M507.459 694.133L753.038 552.234C753.283 552.093 753.562 552.018 753.845 552.018C754.129 552.017 754.407 552.092 754.653 552.233C754.899 552.375 755.103 552.579 755.245 552.824C755.387 553.068 755.462 553.344 755.464 553.626M507.459 694.133L755.464 553.626M755.464 659.343V553.631L755.464 553.626M755.464 659.343L751.973 550.391C752.542 550.063 753.187 549.89 753.844 549.89C754.501 549.889 755.146 550.062 755.715 550.389C756.284 550.717 756.757 551.188 757.086 551.757C757.416 552.325 757.59 552.969 757.592 553.626H755.464M755.464 659.343C755.464 659.345 755.464 659.347 755.464 659.348C755.462 659.63 755.387 659.906 755.246 660.15C755.104 660.394 754.901 660.598 754.657 660.739L755.464 659.343Z" fill="#B5E3D1" stroke="#C6E0F6" stroke-width="4.25613"/>
<path d="M661.828 457.795L661.828 457.813C661.813 458.709 661.562 459.585 661.101 460.354C660.643 461.117 659.993 461.748 659.216 462.183C659.211 462.185 659.206 462.188 659.201 462.191L410.876 604.82C410.872 604.823 410.868 604.825 410.864 604.828C410.743 604.903 410.644 605.007 410.574 605.131C410.501 605.259 410.463 605.403 410.463 605.55C410.463 605.697 410.501 605.841 410.574 605.969C410.644 606.093 410.744 606.198 410.866 606.273C410.869 606.275 410.873 606.277 410.876 606.279L503.628 659.973L661.828 457.795ZM661.828 457.795V457.777M661.828 457.795V457.777M661.828 457.777V168.106C661.828 167.955 661.868 167.807 661.944 167.677C662.02 167.547 662.129 167.439 662.26 167.365C662.391 167.291 662.539 167.253 662.69 167.255C662.841 167.257 662.988 167.299 663.117 167.376L663.128 167.382M661.828 457.777L663.128 167.382M663.128 167.382L663.138 167.388M663.128 167.382L663.138 167.388M663.138 167.388L755.05 221.088C755.052 221.09 755.054 221.091 755.057 221.093C755.179 221.168 755.281 221.273 755.352 221.399C755.425 221.527 755.463 221.671 755.463 221.818V514.7C755.458 514.845 755.417 514.987 755.342 515.111C755.265 515.239 755.156 515.345 755.026 515.417L755.01 515.426M663.138 167.388L755.01 515.426M755.01 515.426L754.995 515.434M755.01 515.426L754.995 515.434M754.995 515.434L504.479 659.973L504.479 659.973M754.995 515.434L504.479 659.973M504.479 659.973C504.35 660.048 504.203 660.087 504.053 660.087M504.479 659.973L504.053 660.087M504.053 660.087C503.905 660.087 503.759 660.048 503.63 659.974L504.053 660.087Z" fill="#47BB8E" stroke="#C6E0F6" stroke-width="4.25613"/>
<path d="M534.827 324.476C534.6 380.317 534.288 435.647 533.891 490.466L534.827 324.476ZM534.827 324.476C534.85 315.524 535.096 305.836 535.353 295.69M534.827 324.476L535.353 295.69M535.353 295.69C536.076 267.245 536.889 235.197 533.125 205.645L535.353 295.69ZM285.887 56.2001L285.876 56.1939L285.865 56.1878C285.536 56.0025 285.301 55.8419 285.138 55.7124C285.305 55.5738 285.549 55.4007 285.893 55.1998C285.893 55.1996 285.894 55.1993 285.894 55.199L375.526 3.10565L375.529 3.10391C376.622 2.46613 377.873 2.12807 379.158 2.12807C380.442 2.12807 381.714 2.46574 382.845 3.11137C382.847 3.11208 382.848 3.11279 382.849 3.1135L629.357 145.349L629.369 145.356C631.194 146.393 632.037 147.839 632.037 149.975V434.881C632.037 437.633 630.914 439.608 628.493 441.046C628.49 441.048 628.487 441.05 628.484 441.051L539.801 492.627L539.784 492.637L539.767 492.647C539.39 492.876 538.959 492.999 538.518 493.005C538.077 493.01 537.642 492.897 537.26 492.678C536.877 492.459 536.56 492.141 536.342 491.757C536.124 491.374 536.012 490.939 536.019 490.498L536.019 490.49L536.019 490.481C536.416 435.66 536.728 380.328 536.955 324.485L536.955 324.482C536.978 315.625 537.222 306 537.479 295.895C538.202 267.411 539.023 235.103 535.236 205.376L535.235 205.369L535.234 205.361C534.75 201.764 532.894 198.972 529.763 197.163L285.887 56.2001Z" fill="#B5E3D1" stroke="#C6E0F6" stroke-width="4.25613"/>
<path d="M9.27208e-06 220.116L0.0851339 326.605C0.0837711 327.173 0.232234 327.732 0.515579 328.225C0.798924 328.717 1.20715 329.127 1.69911 329.412C2.19107 329.697 2.7494 329.847 3.31786 329.847C3.88632 329.847 4.44482 329.698 4.93712 329.414L252.389 186.833L251.326 184.989L251.325 184.99M9.27208e-06 220.116L504.82 328.422L256.688 184.991L256.687 184.99C255.872 184.52 254.947 184.272 254.006 184.272C253.065 184.272 252.14 184.52 251.325 184.99M9.27208e-06 220.116C-0.00135319 219.547 0.14746 218.988 0.431428 218.494C0.715397 218.001 1.12447 217.592 1.61734 217.307L9.27208e-06 220.116ZM251.325 184.99L3.87469 327.57L3.87308 327.571C3.70466 327.668 3.5136 327.719 3.31913 327.719C3.1247 327.719 2.93369 327.668 2.76535 327.57C2.59703 327.473 2.45737 327.333 2.36045 327.164C2.26352 326.995 2.21273 326.804 2.2132 326.61L2.2132 326.603L2.12808 220.115L2.12807 220.111C2.1276 219.916 2.17852 219.725 2.27566 219.556C2.37261 219.388 2.5122 219.248 2.68037 219.151L251.325 184.99ZM2.68137 219.15L253.196 74.6975L253.197 74.697C253.366 74.5999 253.556 74.5487 253.751 74.5487C253.945 74.5487 254.136 74.5999 254.304 74.697L254.304 74.6971L505.926 219.916C506.095 220.014 506.235 220.154 506.332 220.322C506.429 220.491 506.48 220.683 506.48 220.877V220.882V327.456L506.48 327.461C506.48 327.655 506.429 327.847 506.333 328.015C506.236 328.184 506.096 328.324 505.928 328.421C505.759 328.519 505.568 328.57 505.374 328.57C505.18 328.57 504.989 328.519 504.821 328.422L2.68137 219.15Z" fill="#47BB8E" stroke="#C6E0F6" stroke-width="4.25613"/>
</svg>
